<?xml version="1.0" encoding="UTF-8"?>
<svg width="140px" height="30px" viewBox="0 0 140 30" version="1.1" xmlns="http://www.w3.org/2000/svg" xmlns:xlink="http://www.w3.org/1999/xlink">
    <!-- Generator: Sketch 64 (93537) - https://sketch.com -->
    <title>Logos / Aspesi</title>
    <desc>Created with Sketch.</desc>
    <g id="Page-1" stroke="none" stroke-width="1" fill="none" fill-rule="evenodd">
        <g id="Logos-+-Icons" transform="translate(-50.000000, -258.000000)" fill="#000000">
            <g id="Logos-/-Aspesi" transform="translate(50.000000, 258.000000)">
                <path d="M16.6046236,1.1023622 L26.4566929,29.7637795 L20.1308595,29.7637795 L18.2795305,23.8530329 L8.0227931,23.8530329 L6.12515334,29.7637795 L0,29.7637795 L9.97335948,1.1023622 L16.6046236,1.1023622 Z M39.97959,0 C42.9523176,0 45.4954921,0.786502292 47.5992007,2.36172863 C49.6918951,3.93806585 50.7933133,6.22869824 50.9012522,9.2269605 L45.2884254,9.2269605 C45.1804865,7.52620484 44.4392321,6.31867943 43.0426339,5.59994075 C42.113037,5.12559544 40.9554465,4.89119999 39.5808767,4.89119999 C38.0410941,4.89119999 36.8108101,5.19780258 35.8944302,5.81100775 C34.9780503,6.42532381 34.5286717,7.28181147 34.5286717,8.37713811 C34.5286717,9.38803795 34.9758475,10.1467683 35.8768075,10.6433312 C36.4594577,10.9743731 37.6952488,11.3631807 39.5852824,11.8141976 L44.486593,12.9839531 C46.633257,13.489403 48.2446317,14.1748153 49.3108045,15.0279703 C50.9739458,16.3554707 51.8110236,18.2750695 51.8110236,20.7923212 C51.8110236,23.3695603 50.8230516,25.5057805 48.8526145,27.2098688 C46.875569,28.9128463 44.0878797,29.7637795 40.4972566,29.7637795 C36.8218243,29.7637795 33.9239932,28.9261768 31.8202845,27.2476387 C29.7099674,25.574655 28.6614173,23.2729139 28.6614173,20.3346391 L34.276447,20.3346391 C34.450471,21.6232586 34.8040262,22.5908342 35.3327069,23.2284787 C36.3008535,24.391569 37.9507778,24.9736695 40.2912914,24.9736695 C41.6933967,24.9736695 42.8344658,24.8170356 43.7111947,24.5137656 C45.3655247,23.9294433 46.2026025,22.8341167 46.2026025,21.2355619 C46.2026025,20.3024236 45.7829622,19.5836849 44.9613043,19.0704588 C44.1352407,18.5727851 42.8377701,18.132877 41.083211,17.7485129 L38.0752381,17.077542 C35.1201332,16.4121255 33.078104,15.6933868 31.961266,14.9124389 C30.0668269,13.6149323 29.1174044,11.5775803 29.1174044,8.8048265 C29.1174044,6.28202042 30.0337843,4.18134834 31.8709498,2.50503202 C33.7147237,0.833159207 36.4120967,0 39.97959,0 Z M68.1431969,1.1023622 C70.8923156,1.1023622 73.0828308,1.83654629 74.7158402,3.31282107 C76.3466547,4.79248439 77.1653543,7.07749118 77.1653543,10.175748 C77.1653543,13.5552539 76.3576293,15.946435 74.7355944,17.3459028 C73.1058774,18.7487592 70.7913499,19.4456693 67.7832325,19.4456693 L62.0150219,19.4456693 L62.0150219,29.7637795 L56.2204724,29.7637795 L56.2204724,1.1023622 L68.1431969,1.1023622 Z M102.907526,1.1023622 L102.907526,6.17613902 L88.4199203,6.17613902 L88.4199203,12.2404996 L101.684532,12.2404996 L101.684532,17.1651806 L88.4199203,17.1651806 L88.4199203,24.6278794 L103.622047,24.6278794 L103.622047,29.7637795 L82.6771654,29.7637795 L82.6771654,1.1023622 L102.907526,1.1023622 Z M118.247307,0 C121.220034,0 123.761006,0.786502292 125.864714,2.36172863 C127.959612,3.93806585 129.06103,6.22869824 129.166766,9.2269605 L123.556142,9.2269605 C123.448203,7.52620484 122.706949,6.31867943 121.31035,5.59994075 C120.378551,5.12559544 119.225366,4.89119999 117.848593,4.89119999 C116.308811,4.89119999 115.080729,5.19780258 114.16435,5.81100775 C113.250173,6.42532381 112.794185,7.28181147 112.794185,8.37713811 C112.794185,9.38803795 113.241361,10.1467683 114.144524,10.6433312 C114.729377,10.9743731 115.961864,11.3631807 117.852999,11.8141976 L122.753208,12.9839531 C124.900974,13.489403 126.512348,14.1748153 127.580724,15.0279703 C129.241662,16.3554707 130.07874,18.2750695 130.07874,20.7923212 C130.07874,23.3695603 129.090768,25.5057805 127.118128,27.2098688 C125.143286,28.9128463 122.355596,29.7637795 118.764973,29.7637795 C115.089541,29.7637795 112.19171,28.9261768 110.091305,27.2476387 C107.976583,25.574655 106.929134,23.2729139 106.929134,20.3346391 L112.541961,20.3346391 C112.718188,21.6232586 113.06954,22.5908342 113.602626,23.2284787 C114.566367,24.391569 116.218494,24.9736695 118.561211,24.9736695 C119.961113,24.9736695 121.101081,24.8170356 121.981114,24.5137656 C123.633241,23.9294433 124.468116,22.8341167 124.468116,21.2355619 C124.468116,20.3024236 124.050679,19.5836849 123.229021,19.0704588 C122.402957,18.5727851 121.105487,18.132877 119.350928,17.7485129 L116.340752,17.077542 C113.38785,16.4121255 111.345821,15.6933868 110.228983,14.9124389 C108.332341,13.6149323 107.382918,11.5775803 107.382918,8.8048265 C107.382918,6.28202042 108.299298,4.18134834 110.138666,2.50503202 C111.98244,0.833159207 114.679813,0 118.247307,0 Z M140,1.1023622 L140,29.7637795 L134.488189,29.7637795 L134.488189,1.1023622 L140,1.1023622 Z M13.2294491,7.65354331 L9.60728371,18.9272224 L16.7446586,18.9272224 L13.2294491,7.65354331 Z M67.2103623,6.0213956 L62.0150219,6.0213956 L62.0150219,14.5198588 L67.2103623,14.5198588 C68.5262079,14.5198588 69.5490336,14.1742275 70.2810345,13.482965 C71.0141328,12.7917024 71.378487,11.6949443 71.378487,10.1960793 C71.378487,8.69043714 71.0141328,7.62304643 70.2810345,6.97922346 C69.5490336,6.34330709 68.5262079,6.0213956 67.2103623,6.0213956 Z" id="Aspesi"></path>
            </g>
        </g>
    </g>
</svg>